<svg width="192" height="25" viewBox="0 0 192 25" fill="none" xmlns="http://www.w3.org/2000/svg">
<path d="M9.488 24.384C8.29333 24.384 7.248 24.16 6.352 23.712C5.456 23.264 4.73067 22.6347 4.176 21.824L3.728 24H0.0800002V0.959999H4.176V10.4C4.688 9.696 5.36 9.07733 6.192 8.544C7.04533 8.01067 8.144 7.744 9.488 7.744C10.9813 7.744 12.3147 8.10667 13.488 8.832C14.6613 9.55733 15.5893 10.5493 16.272 11.808C16.9547 13.0667 17.296 14.496 17.296 16.096C17.296 17.696 16.9547 19.1253 16.272 20.384C15.5893 21.6213 14.6613 22.6027 13.488 23.328C12.3147 24.032 10.9813 24.384 9.488 24.384ZM8.624 20.8C9.92533 20.8 11.0027 20.3627 11.856 19.488C12.7093 18.6133 13.136 17.4827 13.136 16.096C13.136 14.7093 12.7093 13.568 11.856 12.672C11.0027 11.776 9.92533 11.328 8.624 11.328C7.30133 11.328 6.21333 11.776 5.36 12.672C4.528 13.5467 4.112 14.6773 4.112 16.064C4.112 17.4507 4.528 18.592 5.36 19.488C6.21333 20.3627 7.30133 20.8 8.624 20.8ZM26.907 24.384C24.923 24.384 23.387 23.7653 22.299 22.528C21.2323 21.2907 20.699 19.4773 20.699 17.088V8.128H24.763V16.704C24.763 18.0693 25.0403 19.1147 25.595 19.84C26.1497 20.5653 27.0243 20.928 28.219 20.928C29.3497 20.928 30.2777 20.5227 31.003 19.712C31.7497 18.9013 32.123 17.7707 32.123 16.32V8.128H36.219V24H32.603L32.283 21.312C31.7923 22.2507 31.0777 22.9973 30.139 23.552C29.2217 24.1067 28.1443 24.384 26.907 24.384ZM42.6318 5.664C41.8851 5.664 41.2664 5.44 40.7758 4.992C40.3064 4.544 40.0718 3.97867 40.0718 3.296C40.0718 2.61333 40.3064 2.05867 40.7758 1.632C41.2664 1.184 41.8851 0.959999 42.6318 0.959999C43.3784 0.959999 43.9864 1.184 44.4558 1.632C44.9464 2.05867 45.1918 2.61333 45.1918 3.296C45.1918 3.97867 44.9464 4.544 44.4558 4.992C43.9864 5.44 43.3784 5.664 42.6318 5.664ZM40.5838 24V8.128H44.6798V24H40.5838ZM48.955 24V0.959999H53.051V24H48.955ZM64.5323 24.384C63.0389 24.384 61.7056 24.0213 60.5323 23.296C59.3589 22.5707 58.4309 21.5787 57.7483 20.32C57.0656 19.0613 56.7243 17.632 56.7243 16.032C56.7243 14.432 57.0656 13.0133 57.7483 11.776C58.4309 10.5173 59.3589 9.536 60.5323 8.832C61.7056 8.10667 63.0389 7.744 64.5323 7.744C65.7269 7.744 66.7723 7.968 67.6683 8.416C68.5643 8.864 69.2896 9.49333 69.8443 10.304V0.959999H73.9403V24H70.2923L69.8443 21.728C69.3323 22.432 68.6496 23.0507 67.7963 23.584C66.9643 24.1173 65.8763 24.384 64.5323 24.384ZM65.3963 20.8C66.7189 20.8 67.7963 20.3627 68.6283 19.488C69.4816 18.592 69.9083 17.4507 69.9083 16.064C69.9083 14.6773 69.4816 13.5467 68.6283 12.672C67.7963 11.776 66.7189 11.328 65.3963 11.328C64.0949 11.328 63.0176 11.7653 62.1643 12.64C61.3109 13.5147 60.8843 14.6453 60.8843 16.032C60.8843 17.4187 61.3109 18.56 62.1643 19.456C63.0176 20.352 64.0949 20.8 65.3963 20.8ZM78.1113 24V8.128H81.7273L82.0473 10.816C82.5379 9.87733 83.2419 9.13067 84.1593 8.576C85.0979 8.02133 86.1966 7.744 87.4553 7.744C89.4179 7.744 90.9433 8.36267 92.0312 9.6C93.1192 10.8373 93.6632 12.6507 93.6632 15.04V24H89.5673V15.424C89.5673 14.0587 89.2899 13.0133 88.7353 12.288C88.1806 11.5627 87.3166 11.2 86.1433 11.2C84.9913 11.2 84.0419 11.6053 83.2953 12.416C82.5699 13.2267 82.2073 14.3573 82.2073 15.808V24H78.1113ZM106.988 24.384C105.793 24.384 104.748 24.16 103.852 23.712C102.956 23.264 102.231 22.6347 101.676 21.824L101.228 24H97.58V0.959999H101.676V10.4C102.188 9.696 102.86 9.07733 103.692 8.544C104.545 8.01067 105.644 7.744 106.988 7.744C108.481 7.744 109.815 8.10667 110.988 8.832C112.161 9.55733 113.089 10.5493 113.772 11.808C114.455 13.0667 114.796 14.496 114.796 16.096C114.796 17.696 114.455 19.1253 113.772 20.384C113.089 21.6213 112.161 22.6027 110.988 23.328C109.815 24.032 108.481 24.384 106.988 24.384ZM106.124 20.8C107.425 20.8 108.503 20.3627 109.356 19.488C110.209 18.6133 110.636 17.4827 110.636 16.096C110.636 14.7093 110.209 13.568 109.356 12.672C108.503 11.776 107.425 11.328 106.124 11.328C104.801 11.328 103.713 11.776 102.86 12.672C102.028 13.5467 101.612 14.6773 101.612 16.064C101.612 17.4507 102.028 18.592 102.86 19.488C103.713 20.3627 104.801 20.8 106.124 20.8ZM126.071 24.384C124.535 24.384 123.148 24.032 121.911 23.328C120.695 22.624 119.724 21.6533 118.999 20.416C118.295 19.1573 117.943 17.7067 117.943 16.064C117.943 14.4213 118.306 12.9813 119.031 11.744C119.756 10.4853 120.727 9.504 121.943 8.8C123.18 8.096 124.567 7.744 126.103 7.744C127.618 7.744 128.983 8.096 130.199 8.8C131.436 9.504 132.407 10.4853 133.111 11.744C133.836 12.9813 134.199 14.4213 134.199 16.064C134.199 17.7067 133.836 19.1573 133.111 20.416C132.407 21.6533 131.436 22.624 130.199 23.328C128.962 24.032 127.586 24.384 126.071 24.384ZM126.071 20.832C127.138 20.832 128.066 20.4373 128.855 19.648C129.644 18.8373 130.039 17.6427 130.039 16.064C130.039 14.4853 129.644 13.3013 128.855 12.512C128.066 11.7013 127.148 11.296 126.103 11.296C125.015 11.296 124.076 11.7013 123.287 12.512C122.519 13.3013 122.135 14.4853 122.135 16.064C122.135 17.6427 122.519 18.8373 123.287 19.648C124.076 20.4373 125.004 20.832 126.071 20.832ZM145.477 24.384C143.941 24.384 142.555 24.032 141.317 23.328C140.101 22.624 139.131 21.6533 138.405 20.416C137.701 19.1573 137.349 17.7067 137.349 16.064C137.349 14.4213 137.712 12.9813 138.437 11.744C139.163 10.4853 140.133 9.504 141.349 8.8C142.587 8.096 143.973 7.744 145.509 7.744C147.024 7.744 148.389 8.096 149.605 8.8C150.843 9.504 151.813 10.4853 152.517 11.744C153.243 12.9813 153.605 14.4213 153.605 16.064C153.605 17.7067 153.243 19.1573 152.517 20.416C151.813 21.6533 150.843 22.624 149.605 23.328C148.368 24.032 146.992 24.384 145.477 24.384ZM145.477 20.832C146.544 20.832 147.472 20.4373 148.261 19.648C149.051 18.8373 149.445 17.6427 149.445 16.064C149.445 14.4853 149.051 13.3013 148.261 12.512C147.472 11.7013 146.555 11.296 145.509 11.296C144.421 11.296 143.483 11.7013 142.693 12.512C141.925 13.3013 141.541 14.4853 141.541 16.064C141.541 17.6427 141.925 18.8373 142.693 19.648C143.483 20.4373 144.411 20.832 145.477 20.832ZM163.828 24.384C162.42 24.384 161.182 24.16 160.116 23.712C159.049 23.2427 158.196 22.6027 157.556 21.792C156.916 20.9813 156.532 20.0427 156.404 18.976H160.532C160.66 19.5947 161.001 20.128 161.556 20.576C162.132 21.0027 162.868 21.216 163.764 21.216C164.66 21.216 165.31 21.0347 165.716 20.672C166.142 20.3093 166.356 19.8933 166.356 19.424C166.356 18.7413 166.057 18.2827 165.46 18.048C164.862 17.792 164.03 17.5467 162.964 17.312C162.281 17.1627 161.588 16.9813 160.884 16.768C160.18 16.5547 159.529 16.288 158.932 15.968C158.356 15.6267 157.886 15.2 157.524 14.688C157.161 14.1547 156.98 13.504 156.98 12.736C156.98 11.328 157.534 10.144 158.644 9.184C159.774 8.224 161.353 7.744 163.38 7.744C165.257 7.744 166.75 8.18133 167.86 9.056C168.99 9.93067 169.662 11.136 169.876 12.672H166.004C165.769 11.4987 164.884 10.912 163.348 10.912C162.58 10.912 161.982 11.0613 161.556 11.36C161.15 11.6587 160.948 12.032 160.948 12.48C160.948 12.9493 161.257 13.3227 161.876 13.6C162.494 13.8773 163.316 14.1333 164.34 14.368C165.449 14.624 166.462 14.912 167.38 15.232C168.318 15.5307 169.065 15.9893 169.62 16.608C170.174 17.2053 170.452 18.0693 170.452 19.2C170.473 20.1813 170.217 21.0667 169.684 21.856C169.15 22.6453 168.382 23.264 167.38 23.712C166.377 24.16 165.193 24.384 163.828 24.384ZM180.652 24C178.988 24 177.655 23.5947 176.652 22.784C175.649 21.9733 175.148 20.5333 175.148 18.464V11.552H172.428V8.128H175.148L175.628 3.872H179.244V8.128H183.532V11.552H179.244V18.496C179.244 19.264 179.404 19.7973 179.724 20.096C180.065 20.3733 180.641 20.512 181.452 20.512H183.436V24H180.652ZM188.809 24.224C188.062 24.224 187.443 23.9893 186.953 23.52C186.483 23.0507 186.249 22.4853 186.249 21.824C186.249 21.1413 186.483 20.5653 186.953 20.096C187.443 19.6267 188.062 19.392 188.809 19.392C189.555 19.392 190.163 19.6267 190.633 20.096C191.123 20.5653 191.369 21.1413 191.369 21.824C191.369 22.4853 191.123 23.0507 190.633 23.52C190.163 23.9893 189.555 24.224 188.809 24.224Z" fill="#0A047A"/>
</svg>
