<?xml version="1.0" standalone="no"?>
<!DOCTYPE svg PUBLIC "-//W3C//DTD SVG 20010904//EN"
 "http://www.w3.org/TR/2001/REC-SVG-20010904/DTD/svg10.dtd">
<svg version="1.0" xmlns="http://www.w3.org/2000/svg"
 width="260.000000pt" height="260.000000pt" viewBox="0 0 260.000000 260.000000"
 preserveAspectRatio="xMidYMid meet">
<metadata>
Created by potrace 1.14, written by Peter Selinger 2001-2017
</metadata>
<g transform="translate(0.000000,260.000000) scale(0.100000,-0.100000)"
fill="#000000" stroke="none">
<path d="M275 2586 c-73 -18 -116 -41 -164 -89 -52 -51 -86 -115 -100 -188
-16 -88 -13 -1958 4 -2035 24 -110 85 -185 195 -238 l65 -31 985 -2 c604 -1
1007 2 1043 8 150 25 257 130 286 280 16 87 14 1972 -3 2035 -36 138 -122 224
-260 260 -70 18 -1976 18 -2051 0z"/>
</g>
</svg>
